STARTFONT 2.1
FONT -TempleOS-Regular-R-Regular--8-8-75-75-c-80-iso10646-1
SIZE 8 75 75
FONTBOUNDINGBOX 8 8 0 -1
STARTPROPERTIES 9
FAMILY_NAME TempleOS
WEIGHT_NAME Regular
FONT_VERSION 1.0
FOUNDRY Made by Rendello with Bits n' Picas
FONT_ASCENT 7
FONT_DESCENT 1
CAP_HEIGHT 7
POINT_SIZE 8
X_HEIGHT 7
ENDPROPERTIES
CHARS 319
STARTCHAR U+0020
ENCODING 32
SWIDTH 1000 0
DWIDTH 8 0
BBX 0 0 0 0
BITMAP
ENDCHAR
STARTCHAR U+0021
ENCODING 33
SWIDTH 1000 0
DWIDTH 8 0
BBX 4 7 2 0
BITMAP
60
F0
F0
60
60
00
60
ENDCHAR
STARTCHAR U+0022
ENCODING 34
SWIDTH 1000 0
DWIDTH 8 0
BBX 5 3 1 4
BITMAP
D8
D8
D8
ENDCHAR
STARTCHAR U+0023
ENCODING 35
SWIDTH 1000 0
DWIDTH 8 0
BBX 7 7 1 0
BITMAP
6C
6C
FE
6C
FE
6C
6C
ENDCHAR
STARTCHAR U+0024
ENCODING 36
SWIDTH 1000 0
DWIDTH 8 0
BBX 7 7 1 0
BITMAP
18
7E
D0
7C
16
FC
30
ENDCHAR
STARTCHAR U+0025
ENCODING 37
SWIDTH 1000 0
DWIDTH 8 0
BBX 6 7 1 0
BITMAP
C0
CC
18
30
60
CC
0C
ENDCHAR
STARTCHAR U+0026
ENCODING 38
SWIDTH 1000 0
DWIDTH 8 0
BBX 7 7 1 0
BITMAP
70
D8
D8
70
DA
CC
76
ENDCHAR
STARTCHAR U+0027
ENCODING 39
SWIDTH 1000 0
DWIDTH 8 0
BBX 2 3 3 4
BITMAP
C0
C0
C0
ENDCHAR
STARTCHAR U+0028
ENCODING 40
SWIDTH 1000 0
DWIDTH 8 0
BBX 4 7 2 0
BITMAP
30
60
C0
C0
C0
60
30
ENDCHAR
STARTCHAR U+0029
ENCODING 41
SWIDTH 1000 0
DWIDTH 8 0
BBX 4 7 2 0
BITMAP
C0
60
30
30
30
60
C0
ENDCHAR
STARTCHAR U+002A
ENCODING 42
SWIDTH 1000 0
DWIDTH 8 0
BBX 6 5 1 1
BITMAP
30
FC
78
FC
30
ENDCHAR
STARTCHAR U+002B
ENCODING 43
SWIDTH 1000 0
DWIDTH 8 0
BBX 6 5 1 1
BITMAP
30
30
FC
30
30
ENDCHAR
STARTCHAR U+002C
ENCODING 44
SWIDTH 1000 0
DWIDTH 8 0
BBX 3 3 2 -1
BITMAP
60
60
C0
ENDCHAR
STARTCHAR U+002D
ENCODING 45
SWIDTH 1000 0
DWIDTH 8 0
BBX 6 1 1 3
BITMAP
FC
ENDCHAR
STARTCHAR U+002E
ENCODING 46
SWIDTH 1000 0
DWIDTH 8 0
BBX 2 2 3 0
BITMAP
C0
C0
ENDCHAR
STARTCHAR U+002F
ENCODING 47
SWIDTH 1000 0
DWIDTH 8 0
BBX 6 5 1 1
BITMAP
0C
18
30
60
C0
ENDCHAR
STARTCHAR U+0030
ENCODING 48
SWIDTH 1000 0
DWIDTH 8 0
BBX 6 7 1 0
BITMAP
78
CC
DC
FC
EC
CC
78
ENDCHAR
STARTCHAR U+0031
ENCODING 49
SWIDTH 1000 0
DWIDTH 8 0
BBX 6 7 1 0
BITMAP
30
70
30
30
30
30
FC
ENDCHAR
STARTCHAR U+0032
ENCODING 50
SWIDTH 1000 0
DWIDTH 8 0
BBX 6 7 1 0
BITMAP
78
CC
0C
18
30
60
FC
ENDCHAR
STARTCHAR U+0033
ENCODING 51
SWIDTH 1000 0
DWIDTH 8 0
BBX 6 7 1 0
BITMAP
78
CC
0C
38
0C
CC
78
ENDCHAR
STARTCHAR U+0034
ENCODING 52
SWIDTH 1000 0
DWIDTH 8 0
BBX 6 7 1 0
BITMAP
18
38
78
D8
FC
18
18
ENDCHAR
STARTCHAR U+0035
ENCODING 53
SWIDTH 1000 0
DWIDTH 8 0
BBX 6 7 1 0
BITMAP
FC
C0
F8
0C
0C
CC
78
ENDCHAR
STARTCHAR U+0036
ENCODING 54
SWIDTH 1000 0
DWIDTH 8 0
BBX 6 7 1 0
BITMAP
38
60
C0
F8
CC
CC
78
ENDCHAR
STARTCHAR U+0037
ENCODING 55
SWIDTH 1000 0
DWIDTH 8 0
BBX 6 7 1 0
BITMAP
FC
0C
18
30
60
60
60
ENDCHAR
STARTCHAR U+0038
ENCODING 56
SWIDTH 1000 0
DWIDTH 8 0
BBX 6 7 1 0
BITMAP
78
CC
CC
78
CC
CC
78
ENDCHAR
STARTCHAR U+0039
ENCODING 57
SWIDTH 1000 0
DWIDTH 8 0
BBX 6 7 1 0
BITMAP
78
CC
CC
7C
0C
18
70
ENDCHAR
STARTCHAR U+003A
ENCODING 58
SWIDTH 1000 0
DWIDTH 8 0
BBX 2 5 3 0
BITMAP
C0
C0
00
C0
C0
ENDCHAR
STARTCHAR U+003B
ENCODING 59
SWIDTH 1000 0
DWIDTH 8 0
BBX 3 6 2 -1
BITMAP
60
60
00
60
60
C0
ENDCHAR
STARTCHAR U+003C
ENCODING 60
SWIDTH 1000 0
DWIDTH 8 0
BBX 5 7 1 0
BITMAP
18
30
60
C0
60
30
18
ENDCHAR
STARTCHAR U+003D
ENCODING 61
SWIDTH 1000 0
DWIDTH 8 0
BBX 6 3 1 2
BITMAP
FC
00
FC
ENDCHAR
STARTCHAR U+003E
ENCODING 62
SWIDTH 1000 0
DWIDTH 8 0
BBX 5 7 2 0
BITMAP
C0
60
30
18
30
60
C0
ENDCHAR
STARTCHAR U+003F
ENCODING 63
SWIDTH 1000 0
DWIDTH 8 0
BBX 6 7 1 0
BITMAP
78
CC
18
30
30
00
30
ENDCHAR
STARTCHAR U+0040
ENCODING 64
SWIDTH 1000 0
DWIDTH 8 0
BBX 6 7 1 0
BITMAP
78
CC
DC
D4
DC
C0
78
ENDCHAR
STARTCHAR U+0041
ENCODING 65
SWIDTH 1000 0
DWIDTH 8 0
BBX 6 7 1 0
BITMAP
78
CC
CC
FC
CC
CC
CC
ENDCHAR
STARTCHAR U+0042
ENCODING 66
SWIDTH 1000 0
DWIDTH 8 0
BBX 6 7 1 0
BITMAP
F8
CC
CC
F8
CC
CC
F8
ENDCHAR
STARTCHAR U+0043
ENCODING 67
SWIDTH 1000 0
DWIDTH 8 0
BBX 6 7 1 0
BITMAP
78
CC
C0
C0
C0
CC
78
ENDCHAR
STARTCHAR U+0044
ENCODING 68
SWIDTH 1000 0
DWIDTH 8 0
BBX 6 7 1 0
BITMAP
F0
D8
CC
CC
CC
D8
F0
ENDCHAR
STARTCHAR U+0045
ENCODING 69
SWIDTH 1000 0
DWIDTH 8 0
BBX 6 7 1 0
BITMAP
FC
C0
C0
F8
C0
C0
FC
ENDCHAR
STARTCHAR U+0046
ENCODING 70
SWIDTH 1000 0
DWIDTH 8 0
BBX 6 7 1 0
BITMAP
FC
C0
C0
F8
C0
C0
C0
ENDCHAR
STARTCHAR U+0047
ENCODING 71
SWIDTH 1000 0
DWIDTH 8 0
BBX 6 7 1 0
BITMAP
78
CC
C0
DC
CC
CC
78
ENDCHAR
STARTCHAR U+0048
ENCODING 72
SWIDTH 1000 0
DWIDTH 8 0
BBX 6 7 1 0
BITMAP
CC
CC
CC
FC
CC
CC
CC
ENDCHAR
STARTCHAR U+0049
ENCODING 73
SWIDTH 1000 0
DWIDTH 8 0
BBX 6 7 1 0
BITMAP
FC
30
30
30
30
30
FC
ENDCHAR
STARTCHAR U+004A
ENCODING 74
SWIDTH 1000 0
DWIDTH 8 0
BBX 6 7 1 0
BITMAP
7C
18
18
18
18
D8
70
ENDCHAR
STARTCHAR U+004B
ENCODING 75
SWIDTH 1000 0
DWIDTH 8 0
BBX 6 7 1 0
BITMAP
CC
D8
F0
E0
F0
D8
CC
ENDCHAR
STARTCHAR U+004C
ENCODING 76
SWIDTH 1000 0
DWIDTH 8 0
BBX 6 7 1 0
BITMAP
C0
C0
C0
C0
C0
C0
FC
ENDCHAR
STARTCHAR U+004D
ENCODING 77
SWIDTH 1000 0
DWIDTH 8 0
BBX 7 7 1 0
BITMAP
C6
EE
FE
D6
D6
C6
C6
ENDCHAR
STARTCHAR U+004E
ENCODING 78
SWIDTH 1000 0
DWIDTH 8 0
BBX 6 7 1 0
BITMAP
CC
CC
EC
FC
DC
CC
CC
ENDCHAR
STARTCHAR U+004F
ENCODING 79
SWIDTH 1000 0
DWIDTH 8 0
BBX 6 7 1 0
BITMAP
78
CC
CC
CC
CC
CC
78
ENDCHAR
STARTCHAR U+0050
ENCODING 80
SWIDTH 1000 0
DWIDTH 8 0
BBX 6 7 1 0
BITMAP
F8
CC
CC
F8
C0
C0
C0
ENDCHAR
STARTCHAR U+0051
ENCODING 81
SWIDTH 1000 0
DWIDTH 8 0
BBX 6 7 1 0
BITMAP
78
CC
CC
CC
D4
D8
6C
ENDCHAR
STARTCHAR U+0052
ENCODING 82
SWIDTH 1000 0
DWIDTH 8 0
BBX 6 7 1 0
BITMAP
F8
CC
CC
F8
D8
CC
CC
ENDCHAR
STARTCHAR U+0053
ENCODING 83
SWIDTH 1000 0
DWIDTH 8 0
BBX 6 7 1 0
BITMAP
78
CC
C0
78
0C
CC
78
ENDCHAR
STARTCHAR U+0054
ENCODING 84
SWIDTH 1000 0
DWIDTH 8 0
BBX 6 7 1 0
BITMAP
FC
30
30
30
30
30
30
ENDCHAR
STARTCHAR U+0055
ENCODING 85
SWIDTH 1000 0
DWIDTH 8 0
BBX 6 7 1 0
BITMAP
CC
CC
CC
CC
CC
CC
78
ENDCHAR
STARTCHAR U+0056
ENCODING 86
SWIDTH 1000 0
DWIDTH 8 0
BBX 6 7 1 0
BITMAP
CC
CC
CC
CC
CC
78
30
ENDCHAR
STARTCHAR U+0057
ENCODING 87
SWIDTH 1000 0
DWIDTH 8 0
BBX 7 7 1 0
BITMAP
C6
C6
D6
D6
FE
EE
C6
ENDCHAR
STARTCHAR U+0058
ENCODING 88
SWIDTH 1000 0
DWIDTH 8 0
BBX 6 7 1 0
BITMAP
CC
CC
78
30
78
CC
CC
ENDCHAR
STARTCHAR U+0059
ENCODING 89
SWIDTH 1000 0
DWIDTH 8 0
BBX 6 7 1 0
BITMAP
CC
CC
CC
78
30
30
30
ENDCHAR
STARTCHAR U+005A
ENCODING 90
SWIDTH 1000 0
DWIDTH 8 0
BBX 6 7 1 0
BITMAP
FC
0C
18
30
60
C0
FC
ENDCHAR
STARTCHAR U+005B
ENCODING 91
SWIDTH 1000 0
DWIDTH 8 0
BBX 5 7 1 0
BITMAP
F8
C0
C0
C0
C0
C0
F8
ENDCHAR
STARTCHAR U+005C
ENCODING 92
SWIDTH 1000 0
DWIDTH 8 0
BBX 6 5 1 1
BITMAP
C0
60
30
18
0C
ENDCHAR
STARTCHAR U+005D
ENCODING 93
SWIDTH 1000 0
DWIDTH 8 0
BBX 5 7 2 0
BITMAP
F8
18
18
18
18
18
F8
ENDCHAR
STARTCHAR U+005E
ENCODING 94
SWIDTH 1000 0
DWIDTH 8 0
BBX 6 2 1 5
BITMAP
78
CC
ENDCHAR
STARTCHAR U+005F
ENCODING 95
SWIDTH 1000 0
DWIDTH 8 0
BBX 8 2 0 -1
BITMAP
FF
FF
ENDCHAR
STARTCHAR U+0060
ENCODING 96
SWIDTH 1000 0
DWIDTH 8 0
BBX 4 3 2 4
BITMAP
C0
60
30
ENDCHAR
STARTCHAR U+0061
ENCODING 97
SWIDTH 1000 0
DWIDTH 8 0
BBX 6 5 1 0
BITMAP
78
0C
7C
CC
7C
ENDCHAR
STARTCHAR U+0062
ENCODING 98
SWIDTH 1000 0
DWIDTH 8 0
BBX 6 7 1 0
BITMAP
C0
C0
F8
CC
CC
CC
F8
ENDCHAR
STARTCHAR U+0063
ENCODING 99
SWIDTH 1000 0
DWIDTH 8 0
BBX 6 5 1 0
BITMAP
78
CC
C0
CC
78
ENDCHAR
STARTCHAR U+0064
ENCODING 100
SWIDTH 1000 0
DWIDTH 8 0
BBX 6 7 1 0
BITMAP
0C
0C
7C
CC
CC
CC
7C
ENDCHAR
STARTCHAR U+0065
ENCODING 101
SWIDTH 1000 0
DWIDTH 8 0
BBX 6 5 1 0
BITMAP
78
CC
FC
C0
78
ENDCHAR
STARTCHAR U+0066
ENCODING 102
SWIDTH 1000 0
DWIDTH 8 0
BBX 5 7 1 0
BITMAP
38
60
60
F8
60
60
60
ENDCHAR
STARTCHAR U+0067
ENCODING 103
SWIDTH 1000 0
DWIDTH 8 0
BBX 6 6 1 -1
BITMAP
7C
CC
CC
7C
0C
78
ENDCHAR
STARTCHAR U+0068
ENCODING 104
SWIDTH 1000 0
DWIDTH 8 0
BBX 6 7 1 0
BITMAP
C0
C0
F8
CC
CC
CC
CC
ENDCHAR
STARTCHAR U+0069
ENCODING 105
SWIDTH 1000 0
DWIDTH 8 0
BBX 4 7 2 0
BITMAP
60
00
E0
60
60
60
F0
ENDCHAR
STARTCHAR U+006A
ENCODING 106
SWIDTH 1000 0
DWIDTH 8 0
BBX 4 8 1 -1
BITMAP
30
00
70
30
30
30
30
E0
ENDCHAR
STARTCHAR U+006B
ENCODING 107
SWIDTH 1000 0
DWIDTH 8 0
BBX 6 7 1 0
BITMAP
C0
C0
CC
D8
F0
D8
CC
ENDCHAR
STARTCHAR U+006C
ENCODING 108
SWIDTH 1000 0
DWIDTH 8 0
BBX 4 7 2 0
BITMAP
E0
60
60
60
60
60
F0
ENDCHAR
STARTCHAR U+006D
ENCODING 109
SWIDTH 1000 0
DWIDTH 8 0
BBX 7 5 1 0
BITMAP
6C
FE
D6
D6
C6
ENDCHAR
STARTCHAR U+006E
ENCODING 110
SWIDTH 1000 0
DWIDTH 8 0
BBX 6 5 1 0
BITMAP
F8
CC
CC
CC
CC
ENDCHAR
STARTCHAR U+006F
ENCODING 111
SWIDTH 1000 0
DWIDTH 8 0
BBX 6 5 1 0
BITMAP
78
CC
CC
CC
78
ENDCHAR
STARTCHAR U+0070
ENCODING 112
SWIDTH 1000 0
DWIDTH 8 0
BBX 6 6 1 -1
BITMAP
F8
CC
CC
F8
C0
C0
ENDCHAR
STARTCHAR U+0071
ENCODING 113
SWIDTH 1000 0
DWIDTH 8 0
BBX 7 6 1 -1
BITMAP
7C
CC
CC
7C
0C
0E
ENDCHAR
STARTCHAR U+0072
ENCODING 114
SWIDTH 1000 0
DWIDTH 8 0
BBX 6 5 1 0
BITMAP
D8
EC
C0
C0
C0
ENDCHAR
STARTCHAR U+0073
ENCODING 115
SWIDTH 1000 0
DWIDTH 8 0
BBX 6 5 1 0
BITMAP
7C
C0
78
0C
F8
ENDCHAR
STARTCHAR U+0074
ENCODING 116
SWIDTH 1000 0
DWIDTH 8 0
BBX 5 7 1 0
BITMAP
60
60
F8
60
60
60
38
ENDCHAR
STARTCHAR U+0075
ENCODING 117
SWIDTH 1000 0
DWIDTH 8 0
BBX 6 5 1 0
BITMAP
CC
CC
CC
CC
7C
ENDCHAR
STARTCHAR U+0076
ENCODING 118
SWIDTH 1000 0
DWIDTH 8 0
BBX 6 5 1 0
BITMAP
CC
CC
CC
78
30
ENDCHAR
STARTCHAR U+0077
ENCODING 119
SWIDTH 1000 0
DWIDTH 8 0
BBX 7 5 1 0
BITMAP
C6
D6
D6
FE
6C
ENDCHAR
STARTCHAR U+0078
ENCODING 120
SWIDTH 1000 0
DWIDTH 8 0
BBX 6 5 1 0
BITMAP
CC
78
30
78
CC
ENDCHAR
STARTCHAR U+0079
ENCODING 121
SWIDTH 1000 0
DWIDTH 8 0
BBX 6 6 1 -1
BITMAP
CC
CC
CC
7C
0C
78
ENDCHAR
STARTCHAR U+007A
ENCODING 122
SWIDTH 1000 0
DWIDTH 8 0
BBX 6 5 1 0
BITMAP
FC
18
30
60
FC
ENDCHAR
STARTCHAR U+007B
ENCODING 123
SWIDTH 1000 0
DWIDTH 8 0
BBX 5 7 1 0
BITMAP
18
30
30
E0
30
30
18
ENDCHAR
STARTCHAR U+007C
ENCODING 124
SWIDTH 1000 0
DWIDTH 8 0
BBX 2 7 3 0
BITMAP
C0
C0
C0
C0
C0
C0
C0
ENDCHAR
STARTCHAR U+007D
ENCODING 125
SWIDTH 1000 0
DWIDTH 8 0
BBX 5 7 2 0
BITMAP
C0
60
60
38
60
60
C0
ENDCHAR
STARTCHAR U+007E
ENCODING 126
SWIDTH 1000 0
DWIDTH 8 0
BBX 7 3 1 4
BITMAP
62
D6
8C
ENDCHAR
STARTCHAR U+00A1
ENCODING 161
SWIDTH 1000 0
DWIDTH 8 0
BBX 4 7 2 -1
BITMAP
60
00
60
60
F0
F0
60
ENDCHAR
STARTCHAR U+00A2
ENCODING 162
SWIDTH 1000 0
DWIDTH 8 0
BBX 7 8 0 -1
BITMAP
18
18
7E
C0
C0
7E
18
18
ENDCHAR
STARTCHAR U+00A3
ENCODING 163
SWIDTH 1000 0
DWIDTH 8 0
BBX 7 7 0 0
BITMAP
38
6C
64
F0
60
E6
FC
ENDCHAR
STARTCHAR U+00A5
ENCODING 165
SWIDTH 1000 0
DWIDTH 8 0
BBX 6 7 0 0
BITMAP
CC
CC
78
FC
30
FC
30
ENDCHAR
STARTCHAR U+00A7
ENCODING 167
SWIDTH 1000 0
DWIDTH 8 0
BBX 5 8 0 -1
BITMAP
30
48
20
50
50
20
90
60
ENDCHAR
STARTCHAR U+00AB
ENCODING 171
SWIDTH 1000 0
DWIDTH 8 0
BBX 8 5 0 1
BITMAP
33
66
CC
66
33
ENDCHAR
STARTCHAR U+00B1
ENCODING 177
SWIDTH 1000 0
DWIDTH 8 0
BBX 6 7 0 0
BITMAP
30
30
FC
30
30
00
FC
ENDCHAR
STARTCHAR U+00B2
ENCODING 178
SWIDTH 1000 0
DWIDTH 8 0
BBX 5 5 1 2
BITMAP
F0
18
70
C0
F8
ENDCHAR
STARTCHAR U+00B6
ENCODING 182
SWIDTH 1000 0
DWIDTH 8 0
BBX 5 7 0 0
BITMAP
78
A8
A8
78
28
28
28
ENDCHAR
STARTCHAR U+00BB
ENCODING 187
SWIDTH 1000 0
DWIDTH 8 0
BBX 8 5 0 1
BITMAP
CC
66
33
66
CC
ENDCHAR
STARTCHAR U+00BC
ENCODING 188
SWIDTH 1000 0
DWIDTH 8 0
BBX 8 8 0 -1
BITMAP
C6
CC
D8
F3
67
CF
9F
03
ENDCHAR
STARTCHAR U+00BD
ENCODING 189
SWIDTH 1000 0
DWIDTH 8 0
BBX 8 8 0 -1
BITMAP
C6
CC
D8
3E
63
CE
98
1F
ENDCHAR
STARTCHAR U+00BE
ENCODING 190
SWIDTH 1000 0
DWIDTH 8 0
BBX 5 8 0 -1
BITMAP
C0
40
C0
48
D8
38
08
08
ENDCHAR
STARTCHAR U+00BF
ENCODING 191
SWIDTH 1000 0
DWIDTH 8 0
BBX 6 7 0 0
BITMAP
30
00
30
60
C0
CC
78
ENDCHAR
STARTCHAR U+00C4
ENCODING 196
SWIDTH 1000 0
DWIDTH 8 0
BBX 6 7 0 0
BITMAP
CC
30
78
CC
CC
FC
CC
ENDCHAR
STARTCHAR U+00C6
ENCODING 198
SWIDTH 1000 0
DWIDTH 8 0
BBX 7 7 0 0
BITMAP
3E
6C
CC
FE
CC
CC
CE
ENDCHAR
STARTCHAR U+00C9
ENCODING 201
SWIDTH 1000 0
DWIDTH 8 0
BBX 5 7 1 0
BITMAP
38
00
F8
C0
F0
C0
F8
ENDCHAR
STARTCHAR U+00D6
ENCODING 214
SWIDTH 1000 0
DWIDTH 8 0
BBX 7 7 0 0
BITMAP
C6
38
7C
C6
C6
7C
38
ENDCHAR
STARTCHAR U+00DC
ENCODING 220
SWIDTH 1000 0
DWIDTH 8 0
BBX 6 7 0 0
BITMAP
CC
00
CC
CC
CC
CC
78
ENDCHAR
STARTCHAR U+00E0
ENCODING 224
SWIDTH 1000 0
DWIDTH 8 0
BBX 7 7 0 0
BITMAP
E0
00
78
0C
7C
CC
7E
ENDCHAR
STARTCHAR U+00E1
ENCODING 225
SWIDTH 1000 0
DWIDTH 8 0
BBX 6 7 1 0
BITMAP
38
00
F0
18
F8
98
FC
ENDCHAR
STARTCHAR U+00E2
ENCODING 226
SWIDTH 1000 0
DWIDTH 8 0
BBX 8 7 0 0
BITMAP
7E
C3
3C
06
3E
66
3F
ENDCHAR
STARTCHAR U+00E4
ENCODING 228
SWIDTH 1000 0
DWIDTH 8 0
BBX 7 7 0 0
BITMAP
CC
00
78
0C
7C
CC
7E
ENDCHAR
STARTCHAR U+00E6
ENCODING 230
SWIDTH 1000 0
DWIDTH 8 0
BBX 8 5 0 0
BITMAP
7F
0C
7F
CC
7F
ENDCHAR
STARTCHAR U+00E7
ENCODING 231
SWIDTH 1000 0
DWIDTH 8 0
BBX 6 8 0 -1
BITMAP
78
CC
C0
CC
78
18
0C
78
ENDCHAR
STARTCHAR U+00E8
ENCODING 232
SWIDTH 1000 0
DWIDTH 8 0
BBX 6 7 0 0
BITMAP
E0
00
78
CC
FC
C0
78
ENDCHAR
STARTCHAR U+00E9
ENCODING 233
SWIDTH 1000 0
DWIDTH 8 0
BBX 6 7 0 0
BITMAP
1C
00
78
CC
FC
C0
78
ENDCHAR
STARTCHAR U+00EA
ENCODING 234
SWIDTH 1000 0
DWIDTH 8 0
BBX 8 7 0 0
BITMAP
7E
C3
3C
66
7E
60
3C
ENDCHAR
STARTCHAR U+00EB
ENCODING 235
SWIDTH 1000 0
DWIDTH 8 0
BBX 6 7 0 0
BITMAP
CC
00
78
CC
FC
C0
78
ENDCHAR
STARTCHAR U+00EC
ENCODING 236
SWIDTH 1000 0
DWIDTH 8 0
BBX 5 7 0 0
BITMAP
E0
00
70
30
30
30
78
ENDCHAR
STARTCHAR U+00ED
ENCODING 237
SWIDTH 1000 0
DWIDTH 8 0
BBX 4 7 1 0
BITMAP
70
00
E0
60
60
60
F0
ENDCHAR
STARTCHAR U+00EE
ENCODING 238
SWIDTH 1000 0
DWIDTH 8 0
BBX 7 7 0 0
BITMAP
7C
C6
38
18
18
18
3C
ENDCHAR
STARTCHAR U+00EF
ENCODING 239
SWIDTH 1000 0
DWIDTH 8 0
BBX 6 7 0 0
BITMAP
CC
00
70
30
30
30
78
ENDCHAR
STARTCHAR U+00F2
ENCODING 242
SWIDTH 1000 0
DWIDTH 8 0
BBX 6 6 0 0
BITMAP
E0
00
78
CC
CC
78
ENDCHAR
STARTCHAR U+00F3
ENCODING 243
SWIDTH 1000 0
DWIDTH 8 0
BBX 6 6 0 0
BITMAP
1C
00
78
CC
CC
78
ENDCHAR
STARTCHAR U+00F4
ENCODING 244
SWIDTH 1000 0
DWIDTH 8 0
BBX 6 7 0 0
BITMAP
78
CC
00
78
CC
CC
78
ENDCHAR
STARTCHAR U+00F6
ENCODING 246
SWIDTH 1000 0
DWIDTH 8 0
BBX 6 6 0 0
BITMAP
CC
00
78
CC
CC
78
ENDCHAR
STARTCHAR U+00F7
ENCODING 247
SWIDTH 1000 0
DWIDTH 8 0
BBX 6 7 0 0
BITMAP
30
30
00
FC
00
30
30
ENDCHAR
STARTCHAR U+00F9
ENCODING 249
SWIDTH 1000 0
DWIDTH 8 0
BBX 7 6 0 0
BITMAP
E0
00
CC
CC
CC
7E
ENDCHAR
STARTCHAR U+00FA
ENCODING 250
SWIDTH 1000 0
DWIDTH 8 0
BBX 7 6 0 0
BITMAP
1C
00
CC
CC
CC
7E
ENDCHAR
STARTCHAR U+00FB
ENCODING 251
SWIDTH 1000 0
DWIDTH 8 0
BBX 7 7 0 0
BITMAP
78
CC
00
CC
CC
CC
7E
ENDCHAR
STARTCHAR U+00FC
ENCODING 252
SWIDTH 1000 0
DWIDTH 8 0
BBX 7 6 0 0
BITMAP
CC
00
CC
CC
CC
7E
ENDCHAR
STARTCHAR U+00FF
ENCODING 255
SWIDTH 1000 0
DWIDTH 8 0
BBX 6 7 0 -1
BITMAP
CC
00
CC
CC
FC
0C
F8
ENDCHAR
STARTCHAR U+0133
ENCODING 307
SWIDTH 1000 0
DWIDTH 8 0
BBX 3 7 1 0
BITMAP
A0
00
A0
A0
A0
20
C0
ENDCHAR
STARTCHAR U+0226
ENCODING 550
SWIDTH 1000 0
DWIDTH 8 0
BBX 6 7 0 0
BITMAP
30
30
00
78
CC
FC
CC
ENDCHAR
STARTCHAR U+0227
ENCODING 551
SWIDTH 1000 0
DWIDTH 8 0
BBX 7 7 0 0
BITMAP
30
30
78
0C
7C
CC
7E
ENDCHAR
STARTCHAR U+0393
ENCODING 915
SWIDTH 1000 0
DWIDTH 8 0
BBX 7 6 0 0
BITMAP
FE
C6
C0
C0
C0
C0
ENDCHAR
STARTCHAR U+03A3
ENCODING 931
SWIDTH 1000 0
DWIDTH 8 0
BBX 7 7 0 0
BITMAP
FE
66
30
18
30
66
FE
ENDCHAR
STARTCHAR U+03A6
ENCODING 934
SWIDTH 1000 0
DWIDTH 8 0
BBX 6 8 0 -1
BITMAP
FC
30
78
CC
CC
78
30
FC
ENDCHAR
STARTCHAR U+03A9
ENCODING 937
SWIDTH 1000 0
DWIDTH 8 0
BBX 7 7 0 0
BITMAP
38
6C
C6
C6
6C
6C
EE
ENDCHAR
STARTCHAR U+03B1
ENCODING 945
SWIDTH 1000 0
DWIDTH 8 0
BBX 6 5 1 0
BITMAP
EC
B8
90
B8
EC
ENDCHAR
STARTCHAR U+03B2
ENCODING 946
SWIDTH 1000 0
DWIDTH 8 0
BBX 6 7 0 -1
BITMAP
78
CC
F8
CC
F8
C0
C0
ENDCHAR
STARTCHAR U+03B4
ENCODING 948
SWIDTH 1000 0
DWIDTH 8 0
BBX 6 7 0 0
BITMAP
1C
30
18
7C
CC
CC
78
ENDCHAR
STARTCHAR U+03B5
ENCODING 949
SWIDTH 1000 0
DWIDTH 8 0
BBX 6 7 0 0
BITMAP
3C
60
C0
FC
C0
60
3C
ENDCHAR
STARTCHAR U+03B8
ENCODING 952
SWIDTH 1000 0
DWIDTH 8 0
BBX 7 7 0 0
BITMAP
38
6C
C6
FE
C6
6C
38
ENDCHAR
STARTCHAR U+03BC
ENCODING 956
SWIDTH 1000 0
DWIDTH 8 0
BBX 7 7 0 -1
BITMAP
66
66
66
66
7C
60
C0
ENDCHAR
STARTCHAR U+03C0
ENCODING 960
SWIDTH 1000 0
DWIDTH 8 0
BBX 7 6 0 0
BITMAP
FE
6C
6C
6C
6C
6C
ENDCHAR
STARTCHAR U+03C3
ENCODING 963
SWIDTH 1000 0
DWIDTH 8 0
BBX 7 5 0 0
BITMAP
7E
CC
CC
CC
78
ENDCHAR
STARTCHAR U+03C4
ENCODING 964
SWIDTH 1000 0
DWIDTH 8 0
BBX 7 6 0 0
BITMAP
76
DC
18
18
18
18
ENDCHAR
STARTCHAR U+0401
ENCODING 1025
SWIDTH 1000 0
DWIDTH 8 0
BBX 4 7 0 0
BITMAP
50
00
F0
80
E0
80
F0
ENDCHAR
STARTCHAR U+0412
ENCODING 1042
SWIDTH 1000 0
DWIDTH 8 0
BBX 5 7 0 0
BITMAP
F8
88
80
F0
88
88
F0
ENDCHAR
STARTCHAR U+0413
ENCODING 1043
SWIDTH 1000 0
DWIDTH 8 0
BBX 5 7 0 0
BITMAP
F8
88
80
80
80
80
80
ENDCHAR
STARTCHAR U+0414
ENCODING 1044
SWIDTH 1000 0
DWIDTH 8 0
BBX 5 8 0 -1
BITMAP
78
28
28
28
48
88
F8
88
ENDCHAR
STARTCHAR U+0416
ENCODING 1046
SWIDTH 1000 0
DWIDTH 8 0
BBX 5 7 0 0
BITMAP
A8
A8
A8
70
A8
A8
A8
ENDCHAR
STARTCHAR U+0417
ENCODING 1047
SWIDTH 1000 0
DWIDTH 8 0
BBX 5 7 0 0
BITMAP
F0
08
08
70
08
08
F0
ENDCHAR
STARTCHAR U+0418
ENCODING 1048
SWIDTH 1000 0
DWIDTH 8 0
BBX 5 7 0 0
BITMAP
88
88
98
A8
C8
88
88
ENDCHAR
STARTCHAR U+0419
ENCODING 1049
SWIDTH 1000 0
DWIDTH 8 0
BBX 5 7 0 0
BITMAP
50
20
88
98
A8
C8
88
ENDCHAR
STARTCHAR U+041B
ENCODING 1051
SWIDTH 1000 0
DWIDTH 8 0
BBX 5 7 0 0
BITMAP
78
28
28
28
28
A8
48
ENDCHAR
STARTCHAR U+041F
ENCODING 1055
SWIDTH 1000 0
DWIDTH 8 0
BBX 5 7 0 0
BITMAP
F8
88
88
88
88
88
88
ENDCHAR
STARTCHAR U+0423
ENCODING 1059
SWIDTH 1000 0
DWIDTH 8 0
BBX 5 7 0 0
BITMAP
88
88
88
50
20
40
80
ENDCHAR
STARTCHAR U+0424
ENCODING 1060
SWIDTH 1000 0
DWIDTH 8 0
BBX 5 7 0 0
BITMAP
20
70
A8
A8
A8
70
20
ENDCHAR
STARTCHAR U+0426
ENCODING 1062
SWIDTH 1000 0
DWIDTH 8 0
BBX 5 8 0 -1
BITMAP
88
88
88
88
88
88
F8
08
ENDCHAR
STARTCHAR U+0427
ENCODING 1063
SWIDTH 1000 0
DWIDTH 8 0
BBX 5 7 0 0
BITMAP
88
88
88
78
08
08
08
ENDCHAR
STARTCHAR U+0428
ENCODING 1064
SWIDTH 1000 0
DWIDTH 8 0
BBX 5 7 0 0
BITMAP
A8
A8
A8
A8
A8
A8
F8
ENDCHAR
STARTCHAR U+0429
ENCODING 1065
SWIDTH 1000 0
DWIDTH 8 0
BBX 5 8 0 -1
BITMAP
A8
A8
A8
A8
A8
A8
F8
08
ENDCHAR
STARTCHAR U+042A
ENCODING 1066
SWIDTH 1000 0
DWIDTH 8 0
BBX 5 7 0 0
BITMAP
C0
40
40
70
48
48
70
ENDCHAR
STARTCHAR U+042B
ENCODING 1067
SWIDTH 1000 0
DWIDTH 8 0
BBX 5 7 0 0
BITMAP
88
88
88
C8
A8
A8
C8
ENDCHAR
STARTCHAR U+042D
ENCODING 1069
SWIDTH 1000 0
DWIDTH 8 0
BBX 5 7 0 0
BITMAP
70
88
08
38
08
88
70
ENDCHAR
STARTCHAR U+042E
ENCODING 1070
SWIDTH 1000 0
DWIDTH 8 0
BBX 5 7 0 0
BITMAP
90
A8
A8
E8
A8
A8
90
ENDCHAR
STARTCHAR U+042F
ENCODING 1071
SWIDTH 1000 0
DWIDTH 8 0
BBX 5 7 0 0
BITMAP
78
88
88
78
28
48
88
ENDCHAR
STARTCHAR U+0431
ENCODING 1073
SWIDTH 1000 0
DWIDTH 8 0
BBX 5 7 0 0
BITMAP
18
60
80
F0
88
88
70
ENDCHAR
STARTCHAR U+0432
ENCODING 1074
SWIDTH 1000 0
DWIDTH 8 0
BBX 4 5 0 0
BITMAP
E0
90
E0
90
E0
ENDCHAR
STARTCHAR U+0433
ENCODING 1075
SWIDTH 1000 0
DWIDTH 8 0
BBX 5 5 0 0
BITMAP
F8
88
80
80
80
ENDCHAR
STARTCHAR U+0434
ENCODING 1076
SWIDTH 1000 0
DWIDTH 8 0
BBX 5 6 0 -1
BITMAP
78
28
48
88
F8
88
ENDCHAR
STARTCHAR U+0436
ENCODING 1078
SWIDTH 1000 0
DWIDTH 8 0
BBX 5 5 0 0
BITMAP
A8
A8
70
A8
A8
ENDCHAR
STARTCHAR U+0437
ENCODING 1079
SWIDTH 1000 0
DWIDTH 8 0
BBX 5 5 0 0
BITMAP
F0
08
30
08
F0
ENDCHAR
STARTCHAR U+0438
ENCODING 1080
SWIDTH 1000 0
DWIDTH 8 0
BBX 5 6 0 0
BITMAP
50
20
88
98
A8
C8
ENDCHAR
STARTCHAR U+043A
ENCODING 1082
SWIDTH 1000 0
DWIDTH 8 0
BBX 4 5 0 0
BITMAP
90
A0
C0
A0
90
ENDCHAR
STARTCHAR U+043B
ENCODING 1083
SWIDTH 1000 0
DWIDTH 8 0
BBX 5 5 0 0
BITMAP
78
28
28
A8
48
ENDCHAR
STARTCHAR U+043C
ENCODING 1084
SWIDTH 1000 0
DWIDTH 8 0
BBX 5 5 0 0
BITMAP
88
D8
A8
88
88
ENDCHAR
STARTCHAR U+043D
ENCODING 1085
SWIDTH 1000 0
DWIDTH 8 0
BBX 5 5 0 0
BITMAP
88
88
F8
88
88
ENDCHAR
STARTCHAR U+043F
ENCODING 1087
SWIDTH 1000 0
DWIDTH 8 0
BBX 5 5 0 0
BITMAP
F8
88
88
88
88
ENDCHAR
STARTCHAR U+0442
ENCODING 1090
SWIDTH 1000 0
DWIDTH 8 0
BBX 5 5 0 0
BITMAP
F8
20
20
20
20
ENDCHAR
STARTCHAR U+0444
ENCODING 1092
SWIDTH 1000 0
DWIDTH 8 0
BBX 5 7 0 -1
BITMAP
20
20
70
A8
A8
70
20
ENDCHAR
STARTCHAR U+0447
ENCODING 1095
SWIDTH 1000 0
DWIDTH 8 0
BBX 5 5 0 0
BITMAP
88
88
78
08
08
ENDCHAR
STARTCHAR U+0448
ENCODING 1096
SWIDTH 1000 0
DWIDTH 8 0
BBX 5 5 0 0
BITMAP
A8
A8
A8
A8
F8
ENDCHAR
STARTCHAR U+0449
ENCODING 1097
SWIDTH 1000 0
DWIDTH 8 0
BBX 5 6 0 -1
BITMAP
A8
A8
A8
A8
F8
08
ENDCHAR
STARTCHAR U+044A
ENCODING 1098
SWIDTH 1000 0
DWIDTH 8 0
BBX 5 5 0 0
BITMAP
C0
40
70
48
70
ENDCHAR
STARTCHAR U+044B
ENCODING 1099
SWIDTH 1000 0
DWIDTH 8 0
BBX 5 5 0 0
BITMAP
88
88
C8
A8
C8
ENDCHAR
STARTCHAR U+044C
ENCODING 1100
SWIDTH 1000 0
DWIDTH 8 0
BBX 4 5 0 0
BITMAP
80
80
E0
90
E0
ENDCHAR
STARTCHAR U+044D
ENCODING 1101
SWIDTH 1000 0
DWIDTH 8 0
BBX 5 5 0 0
BITMAP
70
88
38
88
70
ENDCHAR
STARTCHAR U+044E
ENCODING 1102
SWIDTH 1000 0
DWIDTH 8 0
BBX 5 5 0 0
BITMAP
90
A8
E8
A8
90
ENDCHAR
STARTCHAR U+044F
ENCODING 1103
SWIDTH 1000 0
DWIDTH 8 0
BBX 5 5 0 0
BITMAP
78
88
78
28
48
ENDCHAR
STARTCHAR U+0451
ENCODING 1105
SWIDTH 1000 0
DWIDTH 8 0
BBX 5 7 0 0
BITMAP
50
00
70
88
F8
80
70
ENDCHAR
STARTCHAR U+201D
ENCODING 8221
SWIDTH 1000 0
DWIDTH 8 0
BBX 5 3 0 4
BITMAP
D8
48
90
ENDCHAR
STARTCHAR U+201E
ENCODING 8222
SWIDTH 1000 0
DWIDTH 8 0
BBX 5 3 0 0
BITMAP
48
90
D8
ENDCHAR
STARTCHAR U+2116
ENCODING 8470
SWIDTH 1000 0
DWIDTH 8 0
BBX 5 7 0 0
BITMAP
90
D0
B0
90
38
28
38
ENDCHAR
STARTCHAR U+2153
ENCODING 8531
SWIDTH 1000 0
DWIDTH 8 0
BBX 5 7 0 0
BITMAP
88
90
B8
48
98
08
38
ENDCHAR
STARTCHAR U+2160
ENCODING 8544
SWIDTH 1000 0
DWIDTH 8 0
BBX 3 6 1 1
BITMAP
E0
40
40
40
40
E0
ENDCHAR
STARTCHAR U+2161
ENCODING 8545
SWIDTH 1000 0
DWIDTH 8 0
BBX 5 6 0 1
BITMAP
F8
50
50
50
50
F8
ENDCHAR
STARTCHAR U+2191
ENCODING 8593
SWIDTH 1000 0
DWIDTH 8 0
BBX 5 7 0 0
BITMAP
20
70
A8
20
20
20
20
ENDCHAR
STARTCHAR U+2193
ENCODING 8595
SWIDTH 1000 0
DWIDTH 8 0
BBX 5 7 0 0
BITMAP
20
20
20
20
A8
70
20
ENDCHAR
STARTCHAR U+221A
ENCODING 8730
SWIDTH 1000 0
DWIDTH 8 0
BBX 8 8 0 -1
BITMAP
0F
0C
0C
0C
EC
6C
3C
1C
ENDCHAR
STARTCHAR U+221E
ENCODING 8734
SWIDTH 1000 0
DWIDTH 8 0
BBX 8 4 0 1
BITMAP
7E
DB
DB
7E
ENDCHAR
STARTCHAR U+2248
ENCODING 8776
SWIDTH 1000 0
DWIDTH 8 0
BBX 7 5 0 1
BITMAP
72
9C
00
72
9C
ENDCHAR
STARTCHAR U+2261
ENCODING 8801
SWIDTH 1000 0
DWIDTH 8 0
BBX 5 5 1 1
BITMAP
F8
00
F8
00
F8
ENDCHAR
STARTCHAR U+2264
ENCODING 8804
SWIDTH 1000 0
DWIDTH 8 0
BBX 6 7 0 0
BITMAP
18
30
60
30
18
00
FC
ENDCHAR
STARTCHAR U+2265
ENCODING 8805
SWIDTH 1000 0
DWIDTH 8 0
BBX 6 7 0 0
BITMAP
60
30
18
30
60
00
FC
ENDCHAR
STARTCHAR U+2500
ENCODING 9472
SWIDTH 1000 0
DWIDTH 8 0
BBX 8 1 0 2
BITMAP
FF
ENDCHAR
STARTCHAR U+2502
ENCODING 9474
SWIDTH 1000 0
DWIDTH 8 0
BBX 2 8 3 -1
BITMAP
C0
C0
C0
C0
C0
C0
C0
C0
ENDCHAR
STARTCHAR U+250C
ENCODING 9484
SWIDTH 1000 0
DWIDTH 8 0
BBX 5 4 3 -1
BITMAP
F8
C0
C0
C0
ENDCHAR
STARTCHAR U+2510
ENCODING 9488
SWIDTH 1000 0
DWIDTH 8 0
BBX 5 4 0 -1
BITMAP
F8
18
18
18
ENDCHAR
STARTCHAR U+2514
ENCODING 9492
SWIDTH 1000 0
DWIDTH 8 0
BBX 5 5 3 2
BITMAP
C0
C0
C0
C0
F8
ENDCHAR
STARTCHAR U+2518
ENCODING 9496
SWIDTH 1000 0
DWIDTH 8 0
BBX 5 5 0 2
BITMAP
18
18
18
18
F8
ENDCHAR
STARTCHAR U+251C
ENCODING 9500
SWIDTH 1000 0
DWIDTH 8 0
BBX 5 8 3 -1
BITMAP
C0
C0
C0
C0
F8
C0
C0
C0
ENDCHAR
STARTCHAR U+2524
ENCODING 9508
SWIDTH 1000 0
DWIDTH 8 0
BBX 5 8 0 -1
BITMAP
18
18
18
18
F8
18
18
18
ENDCHAR
STARTCHAR U+252C
ENCODING 9516
SWIDTH 1000 0
DWIDTH 8 0
BBX 8 4 0 -1
BITMAP
FF
18
18
18
ENDCHAR
STARTCHAR U+2534
ENCODING 9524
SWIDTH 1000 0
DWIDTH 8 0
BBX 8 5 0 2
BITMAP
18
18
18
18
FF
ENDCHAR
STARTCHAR U+253C
ENCODING 9532
SWIDTH 1000 0
DWIDTH 8 0
BBX 8 8 0 -1
BITMAP
18
18
18
18
FF
18
18
18
ENDCHAR
STARTCHAR U+2550
ENCODING 9552
SWIDTH 1000 0
DWIDTH 8 0
BBX 8 3 0 2
BITMAP
FF
00
FF
ENDCHAR
STARTCHAR U+2551
ENCODING 9553
SWIDTH 1000 0
DWIDTH 8 0
BBX 5 8 2 -1
BITMAP
D8
D8
D8
D8
D8
D8
D8
D8
ENDCHAR
STARTCHAR U+2552
ENCODING 9554
SWIDTH 1000 0
DWIDTH 8 0
BBX 5 6 3 -1
BITMAP
F8
C0
F8
C0
C0
C0
ENDCHAR
STARTCHAR U+2553
ENCODING 9555
SWIDTH 1000 0
DWIDTH 8 0
BBX 6 4 2 -1
BITMAP
FC
D8
D8
D8
ENDCHAR
STARTCHAR U+2554
ENCODING 9556
SWIDTH 1000 0
DWIDTH 8 0
BBX 6 6 2 -1
BITMAP
FC
C0
DC
D8
D8
D8
ENDCHAR
STARTCHAR U+2555
ENCODING 9557
SWIDTH 1000 0
DWIDTH 8 0
BBX 5 6 0 -1
BITMAP
F8
18
F8
18
18
18
ENDCHAR
STARTCHAR U+2556
ENCODING 9558
SWIDTH 1000 0
DWIDTH 8 0
BBX 7 4 0 -1
BITMAP
FE
36
36
36
ENDCHAR
STARTCHAR U+2557
ENCODING 9559
SWIDTH 1000 0
DWIDTH 8 0
BBX 7 6 0 -1
BITMAP
FE
06
F6
36
36
36
ENDCHAR
STARTCHAR U+2558
ENCODING 9560
SWIDTH 1000 0
DWIDTH 8 0
BBX 5 5 3 2
BITMAP
C0
C0
F8
C0
F8
ENDCHAR
STARTCHAR U+2559
ENCODING 9561
SWIDTH 1000 0
DWIDTH 8 0
BBX 6 5 2 2
BITMAP
D8
D8
D8
D8
FC
ENDCHAR
STARTCHAR U+255A
ENCODING 9562
SWIDTH 1000 0
DWIDTH 8 0
BBX 6 5 2 2
BITMAP
D8
D8
DC
C0
FC
ENDCHAR
STARTCHAR U+255B
ENCODING 9563
SWIDTH 1000 0
DWIDTH 8 0
BBX 5 5 0 2
BITMAP
18
18
F8
18
F8
ENDCHAR
STARTCHAR U+255C
ENCODING 9564
SWIDTH 1000 0
DWIDTH 8 0
BBX 7 5 0 2
BITMAP
36
36
36
36
FE
ENDCHAR
STARTCHAR U+255D
ENCODING 9565
SWIDTH 1000 0
DWIDTH 8 0
BBX 7 5 0 2
BITMAP
36
36
F6
06
FE
ENDCHAR
STARTCHAR U+255E
ENCODING 9566
SWIDTH 1000 0
DWIDTH 8 0
BBX 5 8 3 -1
BITMAP
C0
C0
F8
C0
F8
C0
C0
C0
ENDCHAR
STARTCHAR U+255F
ENCODING 9567
SWIDTH 1000 0
DWIDTH 8 0
BBX 6 8 2 -1
BITMAP
D8
D8
D8
D8
DC
D8
D8
D8
ENDCHAR
STARTCHAR U+2560
ENCODING 9568
SWIDTH 1000 0
DWIDTH 8 0
BBX 6 8 2 -1
BITMAP
D8
D8
DC
C0
DC
D8
D8
D8
ENDCHAR
STARTCHAR U+2561
ENCODING 9569
SWIDTH 1000 0
DWIDTH 8 0
BBX 5 8 0 -1
BITMAP
18
18
F8
18
F8
18
18
18
ENDCHAR
STARTCHAR U+2562
ENCODING 9570
SWIDTH 1000 0
DWIDTH 8 0
BBX 7 8 0 -1
BITMAP
36
36
36
36
F6
36
36
36
ENDCHAR
STARTCHAR U+2563
ENCODING 9571
SWIDTH 1000 0
DWIDTH 8 0
BBX 7 8 0 -1
BITMAP
36
36
F6
06
F6
36
36
36
ENDCHAR
STARTCHAR U+2564
ENCODING 9572
SWIDTH 1000 0
DWIDTH 8 0
BBX 8 6 0 -1
BITMAP
FF
00
FF
18
18
18
ENDCHAR
STARTCHAR U+2565
ENCODING 9573
SWIDTH 1000 0
DWIDTH 8 0
BBX 8 4 0 -1
BITMAP
FF
36
36
36
ENDCHAR
STARTCHAR U+2566
ENCODING 9574
SWIDTH 1000 0
DWIDTH 8 0
BBX 8 6 0 -1
BITMAP
FF
00
F7
36
36
36
ENDCHAR
STARTCHAR U+2567
ENCODING 9575
SWIDTH 1000 0
DWIDTH 8 0
BBX 8 5 0 2
BITMAP
18
18
FF
00
FF
ENDCHAR
STARTCHAR U+2568
ENCODING 9576
SWIDTH 1000 0
DWIDTH 8 0
BBX 7 5 1 2
BITMAP
6C
6C
6C
6C
FE
ENDCHAR
STARTCHAR U+2569
ENCODING 9577
SWIDTH 1000 0
DWIDTH 8 0
BBX 8 5 0 2
BITMAP
36
36
F7
00
FF
ENDCHAR
STARTCHAR U+256A
ENCODING 9578
SWIDTH 1000 0
DWIDTH 8 0
BBX 8 8 0 -1
BITMAP
18
18
FF
00
FF
18
18
18
ENDCHAR
STARTCHAR U+256B
ENCODING 9579
SWIDTH 1000 0
DWIDTH 8 0
BBX 8 8 0 -1
BITMAP
36
36
36
36
F7
36
36
36
ENDCHAR
STARTCHAR U+256C
ENCODING 9580
SWIDTH 1000 0
DWIDTH 8 0
BBX 8 8 0 -1
BITMAP
36
36
F7
00
F7
36
36
36
ENDCHAR
STARTCHAR U+2580
ENCODING 9600
SWIDTH 1000 0
DWIDTH 8 0
BBX 8 4 0 3
BITMAP
FF
FF
FF
FF
ENDCHAR
STARTCHAR U+2584
ENCODING 9604
SWIDTH 1000 0
DWIDTH 8 0
BBX 8 4 0 -1
BITMAP
FF
FF
FF
FF
ENDCHAR
STARTCHAR U+2588
ENCODING 9608
SWIDTH 1000 0
DWIDTH 8 0
BBX 8 8 0 -1
BITMAP
FF
FF
FF
FF
FF
FF
FF
FF
ENDCHAR
STARTCHAR U+258C
ENCODING 9612
SWIDTH 1000 0
DWIDTH 8 0
BBX 4 8 0 -1
BITMAP
F0
F0
F0
F0
F0
F0
F0
F0
ENDCHAR
STARTCHAR U+2590
ENCODING 9616
SWIDTH 1000 0
DWIDTH 8 0
BBX 4 8 4 -1
BITMAP
F0
F0
F0
F0
F0
F0
F0
F0
ENDCHAR
STARTCHAR U+2591
ENCODING 9617
SWIDTH 1000 0
DWIDTH 8 0
BBX 5 8 2 -1
BITMAP
88
20
88
20
88
20
88
20
ENDCHAR
STARTCHAR U+2592
ENCODING 9618
SWIDTH 1000 0
DWIDTH 8 0
BBX 8 8 0 -1
BITMAP
55
AA
55
AA
55
AA
55
AA
ENDCHAR
STARTCHAR U+2593
ENCODING 9619
SWIDTH 1000 0
DWIDTH 8 0
BBX 8 8 0 -1
BITMAP
DD
77
DD
77
DD
77
DD
77
ENDCHAR
STARTCHAR U+2B70
ENCODING 11120
SWIDTH 1000 0
DWIDTH 8 0
BBX 5 7 0 0
BITMAP
80
90
B0
F8
B0
90
80
ENDCHAR
STARTCHAR U+2B72
ENCODING 11122
SWIDTH 1000 0
DWIDTH 8 0
BBX 5 7 0 0
BITMAP
08
48
68
F8
68
48
08
ENDCHAR
STARTCHAR U+E001
ENCODING 57345
SWIDTH 1000 0
DWIDTH 8 0
BBX 0 0 0 0
BITMAP
ENDCHAR
STARTCHAR U+E002
ENCODING 57346
SWIDTH 1000 0
DWIDTH 8 0
BBX 7 6 0 -1
BITMAP
7C
C0
C0
7C
06
3C
ENDCHAR
STARTCHAR U+E003
ENCODING 57347
SWIDTH 1000 0
DWIDTH 8 0
BBX 7 8 0 -1
BITMAP
F0
D8
D8
F4
CC
DE
CC
0E
ENDCHAR
STARTCHAR U+E004
ENCODING 57348
SWIDTH 1000 0
DWIDTH 8 0
BBX 6 6 0 0
BITMAP
F8
00
F8
CC
CC
CC
ENDCHAR
STARTCHAR U+E005
ENCODING 57349
SWIDTH 1000 0
DWIDTH 8 0
BBX 6 7 0 0
BITMAP
FC
00
CC
EC
FC
DC
CC
ENDCHAR
STARTCHAR U+E006
ENCODING 57350
SWIDTH 1000 0
DWIDTH 8 0
BBX 6 6 1 1
BITMAP
78
D8
D8
7C
00
FC
ENDCHAR
STARTCHAR U+E007
ENCODING 57351
SWIDTH 1000 0
DWIDTH 8 0
BBX 6 6 1 1
BITMAP
78
CC
CC
78
00
FC
ENDCHAR
STARTCHAR U+E008
ENCODING 57352
SWIDTH 1000 0
DWIDTH 8 0
BBX 6 3 0 1
BITMAP
FC
C0
C0
ENDCHAR
STARTCHAR U+E009
ENCODING 57353
SWIDTH 1000 0
DWIDTH 8 0
BBX 6 3 0 1
BITMAP
FC
0C
0C
ENDCHAR
STARTCHAR U+E00A
ENCODING 57354
SWIDTH 1000 0
DWIDTH 8 0
BBX 8 8 0 -1
BITMAP
06
0C
7E
DB
DB
7E
60
C0
ENDCHAR
STARTCHAR U+E00B
ENCODING 57355
SWIDTH 1000 0
DWIDTH 8 0
BBX 6 7 0 0
BITMAP
78
CC
CC
CC
CC
CC
CC
ENDCHAR
STARTCHAR U+E00C
ENCODING 57356
SWIDTH 1000 0
DWIDTH 8 0
BBX 5 8 3 -1
BITMAP
70
D8
D8
C0
C0
C0
C0
C0
ENDCHAR
STARTCHAR U+E00D
ENCODING 57357
SWIDTH 1000 0
DWIDTH 8 0
BBX 5 8 0 -1
BITMAP
18
18
18
18
18
D8
D8
70
ENDCHAR
STARTCHAR U+E00E
ENCODING 57358
SWIDTH 1000 0
DWIDTH 8 0
BBX 5 4 1 3
BITMAP
70
D8
D8
70
ENDCHAR
STARTCHAR U+E00F
ENCODING 57359
SWIDTH 1000 0
DWIDTH 8 0
BBX 2 2 3 2
BITMAP
C0
C0
ENDCHAR
STARTCHAR U+E010
ENCODING 57360
SWIDTH 1000 0
DWIDTH 8 0
BBX 5 5 1 2
BITMAP
F0
D8
D8
D8
D8
ENDCHAR
STARTCHAR U+E011
ENCODING 57361
SWIDTH 1000 0
DWIDTH 8 0
BBX 4 4 2 1
BITMAP
F0
F0
F0
F0
ENDCHAR
STARTCHAR U+E012
ENCODING 57362
SWIDTH 1000 0
DWIDTH 8 0
BBX 1 1 3 0
BITMAP
80
ENDCHAR
STARTCHAR U+E014
ENCODING 57364
SWIDTH 1000 0
DWIDTH 8 0
BBX 5 5 0 0
BITMAP
20
48
90
48
20
ENDCHAR
STARTCHAR U+E015
ENCODING 57365
SWIDTH 1000 0
DWIDTH 8 0
BBX 5 5 0 0
BITMAP
20
90
48
90
20
ENDCHAR
STARTCHAR U+E016
ENCODING 57366
SWIDTH 1000 0
DWIDTH 8 0
BBX 5 7 0 0
BITMAP
20
00
20
40
80
88
70
ENDCHAR
STARTCHAR U+E017
ENCODING 57367
SWIDTH 1000 0
DWIDTH 8 0
BBX 5 7 0 0
BITMAP
18
20
20
70
20
20
C0
ENDCHAR
STARTCHAR U+E018
ENCODING 57368
SWIDTH 1000 0
DWIDTH 8 0
BBX 5 7 0 0
BITMAP
20
50
40
F0
40
40
78
ENDCHAR
STARTCHAR U+E019
ENCODING 57369
SWIDTH 1000 0
DWIDTH 8 0
BBX 1 2 2 0
BITMAP
80
80
ENDCHAR
STARTCHAR U+E01A
ENCODING 57370
SWIDTH 1000 0
DWIDTH 8 0
BBX 1 4 2 0
BITMAP
80
80
80
80
ENDCHAR
STARTCHAR U+E01B
ENCODING 57371
SWIDTH 1000 0
DWIDTH 8 0
BBX 3 5 1 0
BITMAP
A0
A0
A0
00
E0
ENDCHAR
STARTCHAR U+E01C
ENCODING 57372
SWIDTH 1000 0
DWIDTH 8 0
BBX 3 5 1 0
BITMAP
A0
A0
A0
00
A0
ENDCHAR
STARTCHAR U+E01D
ENCODING 57373
SWIDTH 1000 0
DWIDTH 8 0
BBX 5 7 0 0
BITMAP
A0
00
E8
10
20
40
80
ENDCHAR
STARTCHAR U+E01E
ENCODING 57374
SWIDTH 1000 0
DWIDTH 8 0
BBX 5 5 0 1
BITMAP
D8
70
20
70
D8
ENDCHAR
STARTCHAR U+E01F
ENCODING 57375
SWIDTH 1000 0
DWIDTH 8 0
BBX 5 7 0 0
BITMAP
A0
40
A8
10
20
40
80
ENDCHAR
STARTCHAR U+E021
ENCODING 57377
SWIDTH 1000 0
DWIDTH 8 0
BBX 5 7 0 0
BITMAP
80
88
A8
F8
A8
88
80
ENDCHAR
STARTCHAR U+E022
ENCODING 57378
SWIDTH 1000 0
DWIDTH 8 0
BBX 5 7 0 0
BITMAP
80
E0
88
10
20
40
80
ENDCHAR
STARTCHAR U+E023
ENCODING 57379
SWIDTH 1000 0
DWIDTH 8 0
BBX 5 6 0 -1
BITMAP
88
88
88
88
58
08
ENDCHAR
STARTCHAR U+E024
ENCODING 57380
SWIDTH 1000 0
DWIDTH 8 0
BBX 2 2 2 5
BITMAP
40
80
ENDCHAR
STARTCHAR U+E025
ENCODING 57381
SWIDTH 1000 0
DWIDTH 8 0
BBX 3 1 1 6
BITMAP
A0
ENDCHAR
STARTCHAR U+E026
ENCODING 57382
SWIDTH 1000 0
DWIDTH 8 0
BBX 5 2 0 5
BITMAP
48
B0
ENDCHAR
STARTCHAR U+E027
ENCODING 57383
SWIDTH 1000 0
DWIDTH 8 0
BBX 5 7 0 0
BITMAP
10
20
70
88
F8
80
70
ENDCHAR
STARTCHAR U+E028
ENCODING 57384
SWIDTH 1000 0
DWIDTH 8 0
BBX 5 5 0 1
BITMAP
50
00
88
00
50
ENDCHAR
STARTCHAR U+E029
ENCODING 57385
SWIDTH 1000 0
DWIDTH 8 0
BBX 5 5 0 1
BITMAP
70
88
88
88
70
ENDCHAR
STARTCHAR U+E02B
ENCODING 57387
SWIDTH 1000 0
DWIDTH 8 0
BBX 5 7 0 0
BITMAP
88
90
A8
58
B8
08
08
ENDCHAR
STARTCHAR U+E02C
ENCODING 57388
SWIDTH 1000 0
DWIDTH 8 0
BBX 5 7 0 0
BITMAP
88
90
B8
48
98
20
38
ENDCHAR
STARTCHAR U+E02D
ENCODING 57389
SWIDTH 1000 0
DWIDTH 8 0
BBX 5 7 0 0
BITMAP
88
F8
88
F8
88
F8
88
ENDCHAR
STARTCHAR U+E02E
ENCODING 57390
SWIDTH 1000 0
DWIDTH 8 0
BBX 5 5 0 2
BITMAP
C0
00
18
00
60
ENDCHAR
STARTCHAR U+E02F
ENCODING 57391
SWIDTH 1000 0
DWIDTH 8 0
BBX 5 8 0 -1
BITMAP
40
A0
E0
A8
08
28
78
20
ENDCHAR
STARTCHAR U+E030
ENCODING 57392
SWIDTH 1000 0
DWIDTH 8 0
BBX 5 8 0 -1
BITMAP
40
70
40
78
40
70
40
E0
ENDCHAR
STARTCHAR U+E031
ENCODING 57393
SWIDTH 1000 0
DWIDTH 8 0
BBX 5 8 0 -1
BITMAP
20
70
20
F8
20
70
20
70
ENDCHAR
STARTCHAR U+E032
ENCODING 57394
SWIDTH 1000 0
DWIDTH 8 0
BBX 5 7 0 -1
BITMAP
68
00
E8
00
68
10
38
ENDCHAR
STARTCHAR U+E033
ENCODING 57395
SWIDTH 1000 0
DWIDTH 8 0
BBX 5 8 0 -1
BITMAP
10
70
10
F0
10
70
10
38
ENDCHAR
STARTCHAR U+E034
ENCODING 57396
SWIDTH 1000 0
DWIDTH 8 0
BBX 5 7 0 0
BITMAP
20
70
20
F8
20
70
20
ENDCHAR
STARTCHAR U+E035
ENCODING 57397
SWIDTH 1000 0
DWIDTH 8 0
BBX 5 8 0 -1
BITMAP
10
90
50
30
50
90
10
38
ENDCHAR
STARTCHAR U+E037
ENCODING 57399
SWIDTH 1000 0
DWIDTH 8 0
BBX 8 8 0 -1
BITMAP
FF
FF
FF
FF
FF
FF
FF
FF
ENDCHAR
STARTCHAR U+E038
ENCODING 57400
SWIDTH 1000 0
DWIDTH 8 0
BBX 2 1 3 2
BITMAP
C0
ENDCHAR
STARTCHAR U+E039
ENCODING 57401
SWIDTH 1000 0
DWIDTH 8 0
BBX 2 2 2 3
BITMAP
C0
C0
ENDCHAR
STARTCHAR U+E040
ENCODING 57408
SWIDTH 1000 0
DWIDTH 8 0
BBX 5 6 0 -1
BITMAP
70
80
88
70
20
60
ENDCHAR
STARTCHAR U+1D453
ENCODING 119891
SWIDTH 1000 0
DWIDTH 8 0
BBX 8 8 0 -1
BITMAP
0E
1B
18
7E
18
18
D8
70
ENDCHAR
STARTCHAR U+1F514
ENCODING 128276
SWIDTH 1000 0
DWIDTH 8 0
BBX 5 6 0 1
BITMAP
20
70
70
70
F8
20
ENDCHAR
ENDFONT
